<svg width="140" height="58" viewBox="0 0 140 58" fill="none" xmlns="http://www.w3.org/2000/svg">
<path d="M26.3942 6.58203V7.57179C23.6858 7.57179 23.2919 8.61104 23.2919 11.6298V20.6366C23.2919 26.5752 21.1744 31.623 14.3295 31.623C7.92783 31.623 3.29892 27.7629 3.29892 20.7356V11.6298C3.29892 9.40285 2.70799 7.57179 0.0488281 7.57179V6.58203H12.5567V7.57179C9.89758 7.57179 9.25741 9.40285 9.25741 11.6298V20.6861C9.25741 26.2783 11.2764 29.5445 15.6099 29.5445C19.1062 29.5445 21.9131 27.1691 21.9131 20.5377V11.6298C21.9131 8.61104 21.4699 7.57179 18.8107 7.57179V6.58203H26.3942Z" fill="#FBB040"/>
<path d="M48.7017 30.2873V31.2275H37.4741V30.2873C40.1333 30.2873 40.1825 28.4067 39.9363 26.2292C39.9363 26.2292 39.4439 23.0125 39.2469 21.7258C38.9514 19.6473 38.7052 17.7668 36.243 17.7668C34.1256 17.7668 33.2392 19.6473 33.2392 21.9733V26.2292C33.2392 28.4562 33.4361 30.2873 36.0953 30.2873V31.2275H24.5723V30.2873C27.2314 30.2873 27.5761 28.4562 27.5761 26.2292V22.6661C27.5761 20.4391 27.2314 18.6081 24.5723 18.6081V17.6678C26.5913 17.6678 30.1861 16.777 32.3035 14.8965H33.2392V17.6678C34.2733 16.1832 35.9968 14.8965 38.8037 14.8965C42.3493 14.8965 44.2205 16.777 44.8607 21.231C45.3531 24.7446 45.5501 26.1798 45.5501 26.1798C45.8456 28.3077 46.0425 30.2873 48.7017 30.2873Z" fill="#FBB040"/>
<path d="M65.543 26.2292C64.3612 28.8521 61.8497 31.574 57.5655 31.574C52.2965 31.574 48.7509 28.3077 48.4062 24.0518C47.9138 18.3606 52.1487 14.8965 57.4178 14.8965C62.5884 14.8965 64.3119 17.0245 64.5582 19.004C64.7551 20.3897 64.3119 21.8743 63.0316 22.4682C61.7513 23.1115 59.9292 22.6661 58.5997 20.8845C60.4709 19.3504 59.7815 15.9357 56.7776 16.1832C54.9556 16.3811 53.6753 18.4101 53.7738 21.6269C53.9707 25.6354 56.039 27.5159 59.1413 27.8129C61.505 28.0603 63.4748 27.2685 64.9521 25.6849C65.0013 25.7344 65.543 26.1798 65.543 26.2292Z" fill="#FBB040"/>
<path d="M77.263 30.2865V31.2268H65.543V30.2865C68.2021 30.2865 68.5468 28.4554 68.5468 26.2285V14.3513C68.5468 12.1244 68.2021 10.2933 65.543 10.2933V9.30356C67.562 9.30356 71.1568 8.46226 73.2742 6.53223H74.2099V26.2285C74.2591 28.4554 74.6038 30.2865 77.263 30.2865Z" fill="#FBB040"/>
<path d="M94.4981 26.2292C93.3655 28.8521 90.8048 31.574 86.5206 31.574C81.2023 31.574 77.706 28.1593 77.3613 23.9033C76.8688 18.2122 81.1038 14.8965 86.3729 14.8965C91.051 14.8965 94.2519 17.4204 94.0549 22.0723L83.2213 23.9033C84.0584 28.4562 90.8541 29.0006 93.9072 25.6849C93.9072 25.7344 94.4981 26.1798 94.4981 26.2292ZM83.0243 22.5671L88.7858 21.5774C88.9828 18.2122 88.1949 15.9852 85.782 16.1832C83.5167 16.4306 82.5811 19.2514 83.0243 22.5671Z" fill="#FBB040"/>
<path d="M47.5197 37.9581V52.6066C47.5197 54.8335 48.1599 56.6646 50.8191 56.6646V57.6049H38.3112V56.6646C40.9703 56.6646 41.6105 54.8335 41.6105 52.6066V45.9257H31.7125V52.5571C31.7125 54.784 32.3527 56.6151 35.0118 56.6151V57.5554H22.5039V56.6151C25.1631 56.6151 25.8032 54.784 25.8032 52.5571V37.9581C25.8032 35.7311 25.1631 34.8403 22.5039 34.8403V33.8506H35.0118V34.8403C32.3527 34.8403 31.7125 35.7311 31.7125 37.9581V44.54H41.6105V37.9581C41.6105 35.7311 40.9703 34.8403 38.3112 34.8403V33.8506H50.8191V34.8403C48.1599 34.8403 47.5197 35.7311 47.5197 37.9581Z" fill="#FBB040"/>
<path d="M67.8087 52.5564C66.6761 55.1793 64.1154 57.9011 59.8312 57.9011C54.5128 57.9011 51.0165 54.4864 50.6718 50.2305C50.1794 44.5393 54.4143 41.2236 59.6834 41.2236C64.3616 41.2236 67.5624 43.7475 67.3655 48.3994L56.5318 50.2305C57.369 54.7834 64.1646 55.3277 67.2177 52.012C67.2177 52.0615 67.8087 52.5069 67.8087 52.5564ZM56.2856 48.8943L62.0471 47.9045C62.2441 44.5393 61.4562 42.3124 59.0433 42.5103C56.8273 42.7083 55.8917 45.5291 56.2856 48.8943Z" fill="#FBB040"/>
<path d="M85.6836 46.0241C84.8464 48.0531 82.6797 48.3995 81.5471 47.9541C81.8918 46.7169 81.8918 45.1828 80.513 44.7374C78.9372 44.2425 77.6568 45.1333 77.5091 46.7169V52.5565C77.5091 54.7834 77.7061 56.6145 80.3652 56.6145V57.5548H68.793V56.6145C71.5014 56.6145 71.7968 54.7834 71.7968 52.5565V48.9933C71.7968 46.7664 71.5014 44.9353 68.793 44.9353V43.995C70.8612 43.995 74.4068 43.1043 76.5242 41.2237H77.4599V44.3909C78.5925 42.263 80.2668 40.7783 82.8767 41.2237C85.4866 41.6691 86.4715 43.995 85.6836 46.0241Z" fill="#FBB040"/>
<path d="M106.662 49.587C106.662 54.5358 103.166 58.6928 97.8475 57.901C95.8285 57.6041 94.3512 56.5648 93.4155 55.2781L89.0328 57.6041H88.1464V40.6792C88.1464 38.4522 87.851 34.7406 85.1426 34.7406V33.7508C87.2108 33.7508 90.7564 32.9095 92.8739 30.9795H93.8095V43.0546C94.7451 42.1143 95.9762 41.4215 97.552 41.2235C102.87 40.5307 106.662 44.5887 106.662 49.587ZM100.901 49.0921C100.162 44.8856 98.5369 42.4112 96.3702 42.7577C94.2527 43.1536 93.514 46.0734 94.2527 50.2798C94.9913 54.4863 96.6656 56.9607 98.8323 56.6143C100.901 56.2679 101.639 53.3481 100.901 49.0921Z" fill="#FBB040"/>
<path d="M112.423 36.5226C112.423 39.4424 110.453 41.9663 107.991 42.8571L107.548 42.1643C108.582 41.2735 109.074 40.3827 109.321 39.2445C107.499 39.2445 106.268 38.0073 106.268 36.5226C106.268 34.9885 107.499 33.8008 109.321 33.8008C111.192 33.8008 112.423 34.9885 112.423 36.5226Z" fill="#FBB040"/>
<path d="M126.014 53.7942C125.325 57.2584 120.844 58.0996 117.298 57.9017C114.393 57.7532 110.453 56.615 109.912 54.2891C109.37 52.1611 110.995 50.1816 113.162 50.4785C114.934 50.7259 115.673 52.0126 115.722 53.4478C114.688 53.3983 113.999 54.1406 114.196 55.1799C114.393 56.1201 116.018 56.5655 117.446 56.6645C119.317 56.7635 120.844 56.0706 120.991 54.9324C121.238 53.1014 119.662 52.557 117.2 51.2703C114.885 50.0826 111.734 48.499 112.128 45.1338C112.571 41.7191 116.018 40.9273 119.12 41.2737C121.385 41.5706 121.927 42.6099 122.223 41.2737H122.814L123.158 46.7174H122.321C121.73 43.8471 120.942 42.7584 119.071 42.5604C117.84 42.3624 116.953 42.8078 116.855 43.7976C116.658 45.1833 118.234 45.8266 120.647 47.1628C123.06 48.499 126.851 49.8351 126.014 53.7942Z" fill="#FBB040"/>
<path d="M102.918 5.09752C101.441 5.24598 100.407 4.30571 100.259 2.82107C100.111 1.23745 100.948 0.148712 102.426 0.000248235C103.46 -0.0987279 104.346 0.247689 104.74 1.53438C104.74 1.58387 104.74 1.58387 104.691 1.58387L103.804 1.68284C103.755 1.68284 103.755 1.68284 103.706 1.63335C103.509 1.0395 103.115 0.742569 102.475 0.841545C101.638 0.940521 101.244 1.63335 101.342 2.72209C101.441 3.81083 101.982 4.40469 102.82 4.30571C103.509 4.25622 103.804 3.86032 103.903 3.16748C103.903 3.118 103.952 3.118 103.952 3.118L104.888 2.96953C104.937 2.96953 104.937 2.96953 104.937 3.01902C104.789 4.40469 104.051 4.99854 102.918 5.09752Z" fill="#FBB040"/>
<path d="M108.926 4.99829C108.877 4.99829 108.877 4.94881 108.828 4.94881L108.532 3.76109L106.71 3.61263L106.267 4.75085C106.267 4.80034 106.218 4.80034 106.168 4.80034L105.233 4.75085C105.184 4.75085 105.184 4.70137 105.184 4.70137L107.153 0.0494881C107.153 0 107.203 0 107.252 0L108.532 0.0989761C108.581 0.0989761 108.581 0.148464 108.631 0.148464L109.911 4.99829C109.911 5.04778 109.911 5.04778 109.862 5.04778L108.926 4.99829ZM108.335 2.87031L107.843 0.742321L107.055 2.77133L108.335 2.87031Z" fill="#FBB040"/>
<path d="M111.882 3.31628L111.389 5.34529C111.389 5.39478 111.34 5.39478 111.291 5.39478L110.454 5.19683C110.404 5.19683 110.404 5.14734 110.404 5.09785L110.995 2.77191L111.537 0.445972C111.537 0.396484 111.586 0.396484 111.635 0.396484L112.768 0.693413C112.817 0.693413 112.817 0.742901 112.866 0.792389L113.95 4.60297L114.147 3.51423L114.689 1.23778C114.689 1.18829 114.738 1.18829 114.787 1.18829L115.624 1.38625C115.673 1.38625 115.673 1.43573 115.673 1.48522L115.082 3.81116L114.541 6.1371C114.541 6.18659 114.492 6.18659 114.442 6.18659L113.26 5.88966C113.211 5.88966 113.211 5.84017 113.162 5.79068L112.079 2.02959L112.029 2.22754L111.882 3.31628Z" fill="#FBB040"/>
<path d="M116.952 4.80097L116.115 6.73101C116.115 6.78049 116.066 6.78049 116.017 6.78049L115.229 6.43408C115.18 6.43408 115.18 6.38459 115.18 6.3351L116.115 4.15763L117.002 1.98015C117.002 1.93066 117.051 1.93066 117.1 1.93066L118.184 2.37606C118.233 2.37606 118.233 2.42554 118.233 2.47503L118.676 6.38459L119.07 5.34534L119.956 3.21735C119.956 3.16787 120.006 3.16787 120.055 3.16787L120.843 3.51428C120.892 3.51428 120.892 3.56377 120.892 3.61326L119.956 5.79073L119.07 7.96821C119.07 8.01769 119.021 8.01769 118.971 8.01769L117.888 7.52281C117.839 7.52281 117.839 7.47333 117.839 7.42384L117.396 3.51428L117.346 3.71223L116.952 4.80097Z" fill="#FBB040"/>
<path d="M122.616 10.2934C122.567 10.2934 122.567 10.2439 122.567 10.1945L122.862 9.00675L121.336 8.01699L120.4 8.80879C120.351 8.80879 120.301 8.85828 120.301 8.80879L119.513 8.31391C119.464 8.31391 119.464 8.26443 119.513 8.21494L123.453 5.09719C123.502 5.09719 123.551 5.0477 123.551 5.09719L124.635 5.79002C124.684 5.79002 124.684 5.83951 124.684 5.889L123.502 10.7883C123.502 10.8378 123.453 10.8378 123.453 10.8378L122.616 10.2934ZM123.108 8.11596L123.65 5.98798L121.976 7.42313L123.108 8.11596Z" fill="#FBB040"/>
<path d="M125.472 12.6201L123.896 11.1849C123.847 11.1849 123.847 11.1354 123.896 11.0859L125.521 9.35384L127.097 7.57227C127.097 7.52278 127.146 7.52278 127.196 7.57227L128.771 8.95794C129.51 9.60128 129.806 10.3931 129.264 11.0364C128.87 11.4818 128.427 11.5313 127.934 11.2839C128.328 11.8282 128.279 12.3726 127.934 12.7685C127.097 13.5108 126.162 13.2139 125.472 12.6201ZM125.127 11.3334L125.965 12.0757C126.309 12.3726 126.654 12.4716 127.048 12.0262C127.393 11.6303 127.245 11.2839 126.949 10.9869L126.112 10.2446L125.127 11.3334ZM126.555 9.65077L127.393 10.3931C127.688 10.69 128.033 10.69 128.279 10.3931C128.574 10.0467 128.476 9.74975 128.18 9.50231L127.393 8.75999L126.555 9.65077Z" fill="#FBB040"/>
<path d="M127.295 14.4508C127.295 14.4013 127.295 14.4013 127.295 14.3518L129.068 12.8177L130.791 11.1846C130.84 11.1846 130.84 11.1846 130.89 11.1846L131.53 11.8774C131.53 11.9269 131.53 11.9269 131.53 11.9764L129.757 13.5105L128.034 15.1436C127.984 15.1436 127.984 15.1436 127.935 15.1436L127.295 14.4508Z" fill="#FBB040"/>
<path d="M129.658 17.5688C128.919 16.5296 128.87 15.4903 129.756 14.7975C129.806 14.7975 129.806 14.7975 129.855 14.7975L130.397 15.5893C130.397 15.6388 130.397 15.6388 130.397 15.6883C130.003 16.0842 129.855 16.4801 130.298 17.1234C130.643 17.6678 131.037 17.8162 131.381 17.5688C132.268 16.9255 129.756 14.8965 131.332 13.7582C132.071 13.2139 132.957 13.4613 133.647 14.5005C134.287 15.4408 134.385 16.3316 133.647 17.0739C133.597 17.0739 133.597 17.0739 133.548 17.0739L132.957 16.2821C132.957 16.2326 132.957 16.2326 132.957 16.1831C133.302 15.8862 133.253 15.4408 132.957 14.9459C132.662 14.55 132.317 14.3521 131.972 14.55C131.135 15.1439 133.597 17.2224 132.022 18.3606C131.283 18.905 130.347 18.6081 129.658 17.5688Z" fill="#FBB040"/>
<path d="M132.761 23.2595C132.269 22.0718 132.417 21.0326 133.5 20.5872C133.549 20.5872 133.549 20.5872 133.599 20.6367L133.992 21.5274C133.992 21.5769 133.992 21.5769 133.943 21.6264C133.451 21.9234 133.254 22.2698 133.549 23.0121C133.796 23.6059 134.091 23.8534 134.534 23.6554C135.568 23.21 133.549 20.6861 135.322 19.9438C136.159 19.5974 136.947 20.0428 137.44 21.181C137.883 22.2203 137.784 23.1111 136.849 23.6554C136.799 23.6554 136.799 23.6554 136.75 23.6059L136.356 22.7152C136.356 22.6657 136.356 22.6657 136.405 22.6162C136.799 22.4182 136.898 21.9728 136.652 21.4285C136.455 20.9831 136.159 20.6861 135.765 20.8346C134.83 21.2305 136.799 23.8039 134.977 24.5462C134.042 24.9421 133.254 24.4472 132.761 23.2595Z" fill="#FBB040"/>
<path d="M134.534 28.8523C134.534 28.8029 134.534 28.8029 134.583 28.7534L136.651 28.308L136.159 26.2295L134.09 26.7244C134.041 26.7244 134.041 26.7244 133.992 26.6749L133.795 25.7346C133.795 25.6851 133.795 25.6851 133.844 25.6356L136.159 25.1407L138.473 24.5469C138.522 24.5469 138.522 24.5469 138.572 24.5964L138.769 25.5366C138.769 25.5861 138.769 25.5861 138.719 25.6356L136.947 26.0315L137.439 28.11L139.212 27.6646C139.261 27.6646 139.261 27.6646 139.31 27.7141L139.507 28.6544C139.507 28.7039 139.507 28.7039 139.458 28.7534L137.143 29.2482L134.829 29.8421C134.78 29.8421 134.78 29.8421 134.731 29.7926L134.534 28.8523Z" fill="#FBB040"/>
<path d="M134.927 32.9093C134.828 31.4246 135.813 30.3854 137.29 30.2864C138.817 30.1874 139.9 31.1277 139.95 32.6124C140.048 34.097 139.112 35.1363 137.537 35.2352C136.109 35.3342 135.025 34.3939 134.927 32.9093ZM135.715 32.8598C135.764 33.7506 136.453 34.196 137.487 34.1465C138.521 34.097 139.211 33.5526 139.162 32.6618C139.112 31.7711 138.423 31.3257 137.34 31.3752C136.306 31.4741 135.665 32.0185 135.715 32.8598Z" fill="#FBB040"/>
<path d="M136.552 38.0564L136.651 37.2151L135.026 37.0666C134.977 37.0666 134.977 37.0171 134.977 37.0171L135.075 36.0768C135.075 36.0273 135.124 36.0273 135.124 36.0273L137.488 36.3243L139.852 36.5717C139.901 36.5717 139.901 36.6212 139.901 36.6212L139.704 38.4523C139.556 39.64 138.965 40.2338 137.931 40.1348C136.946 39.9864 136.454 39.2441 136.552 38.0564ZM138.965 38.3533L139.064 37.512L137.439 37.314L137.34 38.2048C137.291 38.6007 137.488 38.9966 138.079 39.0461C138.621 39.1451 138.916 38.8976 138.965 38.3533Z" fill="#FBB040"/>
</svg>
