<svg width="140" height="58" viewBox="0 0 140 58" fill="none" xmlns="http://www.w3.org/2000/svg"><path d="M26.394 6.582v.99c-2.708 0-3.102 1.039-3.102 4.058v9.007c0 5.938-2.118 10.986-8.963 10.986-6.401 0-11.03-3.86-11.03-10.887V11.63c0-2.227-.591-4.058-3.25-4.058v-.99h12.508v.99c-2.66 0-3.3 1.83-3.3 4.058v9.056c0 5.592 2.02 8.858 6.353 8.858 3.496 0 6.303-2.375 6.303-9.006V11.63c0-3.019-.443-4.058-3.102-4.058v-.99h7.583zm22.308 23.705v.94H37.474v-.94c2.66 0 2.709-1.88 2.462-4.058l-.69-4.503c-.295-2.079-.54-3.96-3.003-3.96-2.117 0-3.004 1.881-3.004 4.207v4.256c0 2.227.197 4.058 2.856 4.058v.94H24.572v-.94c2.66 0 3.004-1.83 3.004-4.058v-3.563c0-2.227-.345-4.058-3.004-4.058v-.94c2.02 0 5.614-.891 7.732-2.771h.935v2.77c1.034-1.484 2.758-2.77 5.565-2.77 3.545 0 5.416 1.88 6.057 6.334.492 3.514.69 4.949.69 4.949.295 2.128.491 4.107 3.15 4.107zm16.841-4.057c-1.182 2.622-3.693 5.344-7.978 5.344-5.268 0-8.814-3.266-9.159-7.522-.492-5.691 3.743-9.155 9.012-9.155 5.17 0 6.894 2.127 7.14 4.107.197 1.386-.246 2.87-1.526 3.464-1.28.643-3.103.198-4.432-1.584 1.87-1.534 1.181-4.948-1.822-4.7-1.822.197-3.103 2.226-3.004 5.443.197 4.008 2.265 5.889 5.367 6.186 2.364.247 4.334-.544 5.811-2.128.05.05.591.495.591.544zm11.72 4.057v.94h-11.72v-.94c2.66 0 3.004-1.832 3.004-4.058V14.35c0-2.227-.345-4.058-3.004-4.058v-.99c2.019 0 5.614-.84 7.731-2.77h.936v19.695c.05 2.227.394 4.058 3.053 4.058zm17.235-4.057c-1.133 2.622-3.693 5.344-7.977 5.344-5.319 0-8.815-3.415-9.16-7.67-.492-5.692 3.743-9.008 9.012-9.008 4.678 0 7.879 2.524 7.682 7.176L83.22 23.903c.837 4.553 7.633 5.098 10.686 1.782 0 .05.591.495.591.544zm-11.474-3.663l5.762-.99c.197-3.365-.591-5.592-3.004-5.394-2.265.248-3.2 3.068-2.758 6.384zM47.52 37.958v14.649c0 2.227.64 4.058 3.3 4.058v.94H38.31v-.94c2.66 0 3.3-1.831 3.3-4.058v-6.681h-9.898v6.631c0 2.227.64 4.058 3.299 4.058v.94H22.504v-.94c2.66 0 3.3-1.831 3.3-4.058V37.958c0-2.227-.64-3.118-3.3-3.118v-.99h12.508v.99c-2.66 0-3.3.891-3.3 3.118v6.582h9.899v-6.582c0-2.227-.64-3.118-3.3-3.118v-.99H50.82v.99c-2.66 0-3.3.891-3.3 3.118z" fill="#FBB040"/><path d="M67.809 52.556c-1.133 2.623-3.694 5.345-7.978 5.345-5.318 0-8.815-3.415-9.16-7.67-.492-5.692 3.743-9.007 9.012-9.007 4.679 0 7.88 2.524 7.682 7.175L56.532 50.23c.837 4.553 7.633 5.098 10.686 1.782 0 .05.59.495.59.544zm-11.523-3.662l5.761-.99c.197-3.365-.59-5.592-3.004-5.394-2.216.198-3.151 3.02-2.757 6.384zm29.398-2.87c-.838 2.03-3.004 2.376-4.137 1.93.345-1.237.345-2.771-1.034-3.217-1.576-.495-2.856.396-3.004 1.98v5.84c0 2.226.197 4.057 2.856 4.057v.94H68.793v-.94c2.708 0 3.004-1.83 3.004-4.057v-3.564c0-2.227-.296-4.058-3.004-4.058v-.94c2.068 0 5.614-.89 7.731-2.771h.936v3.167c1.133-2.128 2.807-3.613 5.417-3.167 2.61.445 3.595 2.771 2.807 4.8zm20.978 3.563c0 4.949-3.496 9.106-8.815 8.314-2.018-.297-3.496-1.336-4.431-2.623l-4.383 2.326h-.887V40.68c0-2.227-.295-5.938-3.003-5.938v-.99c2.068 0 5.613-.841 7.73-2.771h.936v12.075a6.27 6.27 0 013.743-1.831c5.318-.693 9.11 3.365 9.11 8.363zm-5.761-.495c-.739-4.206-2.364-6.68-4.53-6.334-2.118.396-2.857 3.315-2.118 7.522.738 4.206 2.413 6.68 4.58 6.334 2.068-.346 2.806-3.266 2.068-7.522zm11.522-12.569c0 2.92-1.97 5.443-4.432 6.334l-.443-.693c1.034-.89 1.526-1.781 1.773-2.92-1.822 0-3.053-1.237-3.053-2.721 0-1.535 1.231-2.722 3.053-2.722 1.871 0 3.102 1.188 3.102 2.722zm13.591 17.271c-.689 3.464-5.17 4.306-8.716 4.108-2.905-.149-6.845-1.287-7.386-3.613-.542-2.128 1.083-4.107 3.25-3.81 1.772.247 2.511 1.534 2.56 2.969-1.034-.05-1.723.693-1.526 1.732.197.94 1.822 1.386 3.25 1.484 1.871.1 3.398-.593 3.545-1.732.247-1.83-1.329-2.375-3.791-3.662-2.315-1.187-5.466-2.771-5.072-6.136.443-3.415 3.89-4.207 6.992-3.86 2.265.297 2.807 1.336 3.103 0h.591l.344 5.443h-.837c-.591-2.87-1.379-3.959-3.25-4.157-1.231-.198-2.118.248-2.216 1.238-.197 1.385 1.379 2.029 3.792 3.365 2.413 1.336 6.204 2.672 5.367 6.631zM102.918 5.098c-1.477.148-2.511-.792-2.659-2.277-.148-1.584.689-2.672 2.167-2.82 1.034-.1 1.92.247 2.314 1.533 0 .05 0 .05-.049.05l-.887.099c-.049 0-.049 0-.098-.05-.197-.593-.591-.89-1.231-.791-.837.099-1.231.791-1.133 1.88.099 1.089.64 1.683 1.478 1.584.689-.05.984-.446 1.083-1.139 0-.049.049-.049.049-.049l.936-.148c.049 0 .049 0 .049.049-.148 1.386-.886 1.98-2.019 2.079zm6.008-.1c-.049 0-.049-.05-.098-.05l-.296-1.187-1.822-.148-.443 1.138c0 .05-.049.05-.099.05l-.935-.05c-.049 0-.049-.05-.049-.05L107.153.05c0-.049.05-.049.099-.049l1.28.099c.049 0 .049.05.099.05l1.28 4.85c0 .049 0 .049-.049.049l-.936-.05zm-.591-2.128l-.492-2.128-.788 2.03 1.28.098zm3.547.446l-.493 2.03c0 .049-.049.049-.098.049l-.837-.198c-.05 0-.05-.05-.05-.1l.591-2.325.542-2.326c0-.05.049-.05.098-.05l1.133.297c.049 0 .049.05.098.1l1.084 3.81.197-1.089.542-2.276c0-.05.049-.05.098-.05l.837.198c.049 0 .049.05.049.1l-.591 2.325-.541 2.326c0 .05-.049.05-.099.05l-1.182-.297c-.049 0-.049-.05-.098-.1l-1.083-3.76-.05.198-.147 1.088zm5.07 1.485l-.837 1.93c0 .05-.049.05-.098.05l-.788-.347c-.049 0-.049-.05-.049-.099l.935-2.177.887-2.178c0-.05.049-.05.098-.05l1.084.446c.049 0 .049.05.049.099l.443 3.91.394-1.04.886-2.128c0-.05.05-.05.099-.05l.788.347c.049 0 .049.05.049.1l-.936 2.177-.886 2.177c0 .05-.049.05-.099.05l-1.083-.495c-.049 0-.049-.05-.049-.1l-.443-3.909-.05.198-.394 1.089zm5.664 5.492c-.049 0-.049-.05-.049-.098l.295-1.188-1.526-.99-.936.792c-.049 0-.099.05-.099 0l-.788-.495c-.049 0-.049-.05 0-.1l3.94-3.117c.049 0 .098-.05.098 0l1.084.693c.049 0 .049.05.049.099l-1.182 4.9c0 .049-.049.049-.049.049l-.837-.545zm.492-2.177l.542-2.128-1.674 1.435 1.132.693zm2.364 4.504l-1.576-1.435c-.049 0-.049-.05 0-.1l1.625-1.731 1.576-1.782c0-.05.049-.05.099 0l1.575 1.386c.739.643 1.035 1.435.493 2.078-.394.446-.837.495-1.33.248.394.544.345 1.089 0 1.484-.837.743-1.772.446-2.462-.148zm-.345-1.287l.838.743c.344.297.689.396 1.083-.05.345-.396.197-.742-.099-1.04l-.837-.741-.985 1.088zm1.428-1.682l.838.742c.295.297.64.297.886 0 .295-.346.197-.643-.099-.89l-.787-.743-.838.89zm.74 4.799v-.098l1.773-1.534 1.723-1.633h.099l.64.692v.1l-1.773 1.534-1.723 1.633h-.099l-.64-.693zm2.363 3.119c-.739-1.04-.788-2.079.098-2.771h.099l.542.791v.1c-.394.395-.542.791-.099 1.434.345.545.739.693 1.083.446.887-.643-1.625-2.672-.049-3.81.739-.545 1.625-.298 2.315.742.64.94.738 1.83 0 2.573h-.099l-.591-.792v-.099c.345-.297.296-.742 0-1.237-.295-.396-.64-.594-.985-.396-.837.594 1.625 2.672.05 3.81-.739.545-1.675.248-2.364-.791zm3.103 5.691c-.492-1.188-.344-2.227.739-2.673.049 0 .049 0 .099.05l.393.89c0 .05 0 .05-.049.1-.492.296-.689.643-.394 1.385.247.594.542.841.985.643 1.034-.445-.985-2.969.788-3.711.837-.347 1.625.099 2.118 1.237.443 1.04.344 1.93-.591 2.474-.05 0-.05 0-.099-.05l-.394-.89c0-.05 0-.05.049-.099.394-.198.493-.643.247-1.188-.197-.445-.493-.742-.887-.593-.935.395 1.034 2.969-.788 3.711-.935.396-1.723-.099-2.216-1.287zm1.773 5.592c0-.05 0-.05.049-.099l2.068-.445-.492-2.078-2.069.494c-.049 0-.049 0-.098-.05l-.197-.94c0-.049 0-.049.049-.098l2.315-.495 2.314-.594c.049 0 .049 0 .099.05l.197.94c0 .05 0 .05-.05.099l-1.772.396.492 2.078 1.773-.445c.049 0 .049 0 .098.05l.197.94c0 .049 0 .049-.049.098l-2.315.495-2.314.594c-.049 0-.049 0-.098-.05l-.197-.94zm.393 4.058c-.099-1.485.886-2.525 2.363-2.624 1.527-.099 2.61.842 2.66 2.326.098 1.485-.838 2.524-2.413 2.623-1.428.1-2.512-.841-2.61-2.326zm.788-.05c.049.89.738 1.336 1.772 1.287 1.034-.05 1.724-.594 1.675-1.485-.05-.89-.739-1.336-1.822-1.287-1.034.1-1.675.644-1.625 1.485zm.837 5.196l.099-.84-1.625-.15c-.049 0-.049-.049-.049-.049l.098-.94c0-.05.049-.05.049-.05l2.364.297 2.364.248c.049 0 .049.05.049.05l-.197 1.83c-.148 1.188-.739 1.782-1.773 1.683-.985-.149-1.477-.89-1.379-2.079zm2.413.297l.099-.841-1.625-.198-.099.89c-.049.397.148.793.739.842.542.1.837-.148.886-.693z" fill="#FBB040"/></svg>